<svg width="135" height="44" viewBox="0 0 135 44" fill="none" xmlns="http://www.w3.org/2000/svg">
<path d="M8.696 32V16.128H12.216L12.28 18.112C12.8133 17.3227 13.496 16.736 14.328 16.352C15.16 15.9467 16.0667 15.744 17.048 15.744C18.264 15.744 19.3627 16 20.344 16.512C21.3467 17.0027 22.1147 17.7813 22.648 18.848C23.2027 17.8667 23.9493 17.1093 24.888 16.576C25.848 16.0213 26.8933 15.744 28.024 15.744C29.2613 15.744 30.36 16 31.32 16.512C32.3013 17.0027 33.0693 17.76 33.624 18.784C34.1787 19.808 34.456 21.0987 34.456 22.656V32H30.872V23.136C30.872 21.792 30.5627 20.7467 29.944 20C29.3467 19.2533 28.4507 18.88 27.256 18.88C26.04 18.88 25.0907 19.2853 24.408 20.096C23.7253 20.8853 23.384 21.984 23.384 23.392V32H19.8V23.136C19.8 21.7707 19.48 20.7253 18.84 20C18.2213 19.2533 17.3253 18.88 16.152 18.88C15.1067 18.88 14.2 19.2533 13.432 20C12.6853 20.7253 12.312 21.856 12.312 23.392V32H8.696ZM44.547 32.384C42.9683 32.384 41.6137 32.0107 40.483 31.264C39.3737 30.496 38.5097 29.4827 37.891 28.224C37.2937 26.9653 36.995 25.5573 36.995 24C36.995 22.464 37.2937 21.0773 37.891 19.84C38.5097 18.5813 39.3843 17.5893 40.515 16.864C41.6457 16.1173 42.9897 15.744 44.547 15.744C45.6563 15.744 46.691 15.9787 47.651 16.448C48.611 16.896 49.3897 17.5573 49.987 18.432V9.6H53.635V32H50.083L49.987 29.6C49.475 30.4533 48.739 31.136 47.779 31.648C46.819 32.1387 45.7417 32.384 44.547 32.384ZM45.347 29.216C46.307 29.216 47.1283 28.992 47.811 28.544C48.4937 28.096 49.027 27.488 49.411 26.72C49.795 25.9307 49.987 25.0453 49.987 24.064C49.987 22.9333 49.763 21.984 49.315 21.216C48.8883 20.448 48.3123 19.872 47.587 19.488C46.883 19.104 46.1257 18.912 45.315 18.912C44.419 18.912 43.619 19.136 42.915 19.584C42.2323 20.0107 41.6883 20.608 41.283 21.376C40.899 22.1227 40.707 23.008 40.707 24.032C40.707 25.0347 40.9097 25.9307 41.315 26.72C41.7203 27.488 42.2643 28.096 42.947 28.544C43.651 28.992 44.451 29.216 45.347 29.216ZM64.8478 32.384C63.3331 32.384 61.9571 32.1067 60.7198 31.552C59.5038 30.9973 58.5331 30.1973 57.8078 29.152C57.1038 28.0853 56.7518 26.7947 56.7518 25.28H59.5677C59.5677 26.7733 60.0584 27.9573 61.0398 28.832C62.0211 29.6853 63.2904 30.112 64.8478 30.112C66.2131 30.112 67.3438 29.7813 68.2398 29.12C69.1571 28.4587 69.6158 27.52 69.6158 26.304C69.6158 25.472 69.4664 24.8107 69.1678 24.32C68.8904 23.808 68.4638 23.392 67.8878 23.072C67.3118 22.7307 66.5864 22.4107 65.7118 22.112C64.8371 21.8133 63.8024 21.4613 62.6078 21.056C61.5411 20.672 60.6238 20.2347 59.8558 19.744C59.1091 19.2533 58.5331 18.656 58.1278 17.952C57.7224 17.2267 57.5198 16.3627 57.5198 15.36C57.4984 14.0373 57.7971 12.928 58.4158 12.032C59.0558 11.1147 59.9091 10.4213 60.9758 9.952C62.0638 9.46133 63.2584 9.216 64.5598 9.216C65.8824 9.216 67.0664 9.46133 68.1118 9.952C69.1784 10.4213 70.0318 11.1253 70.6718 12.064C71.3118 12.9813 71.6424 14.1013 71.6638 15.424H68.8478C68.8478 14.2933 68.4424 13.3653 67.6318 12.64C66.8211 11.8933 65.7651 11.52 64.4638 11.52C63.3118 11.4773 62.3304 11.7653 61.5198 12.384C60.7091 13.0027 60.3038 13.9093 60.3038 15.104C60.3038 15.8933 60.4638 16.5227 60.7838 16.992C61.1251 17.44 61.7011 17.8347 62.5118 18.176C63.3224 18.5173 64.4424 18.9333 65.8718 19.424C66.8958 19.7653 67.8131 20.128 68.6238 20.512C69.4344 20.8747 70.1171 21.312 70.6718 21.824C71.2264 22.3147 71.6531 22.912 71.9518 23.616C72.2504 24.2987 72.3998 25.1413 72.3998 26.144C72.3998 27.488 72.0478 28.6293 71.3438 29.568C70.6611 30.4853 69.7438 31.1893 68.5918 31.68C67.4611 32.1493 66.2131 32.384 64.8478 32.384ZM76.0518 32V9.6H78.7398V22.816L85.2358 16.128H88.5318L81.4918 23.296L89.4278 32H86.0038L78.7398 23.776V32H76.0518ZM93.8088 12.608C93.2754 12.608 92.8274 12.4373 92.4648 12.096C92.1234 11.7333 91.9528 11.2853 91.9528 10.752C91.9528 10.24 92.1234 9.81333 92.4648 9.472C92.8274 9.13067 93.2754 8.96 93.8088 8.96C94.3208 8.96 94.7581 9.13067 95.1208 9.472C95.4834 9.81333 95.6648 10.24 95.6648 10.752C95.6648 11.2853 95.4834 11.7333 95.1208 12.096C94.7581 12.4373 94.3208 12.608 93.8088 12.608ZM92.4648 32V16.128H95.1528V32H92.4648ZM99.833 32V9.6H102.521V32H99.833ZM106.927 32V9.6H109.615V32H106.927ZM120.101 32.384C118.842 32.384 117.711 32.1707 116.709 31.744C115.706 31.296 114.895 30.6773 114.277 29.888C113.679 29.0773 113.306 28.128 113.157 27.04H115.909C116.079 27.872 116.517 28.5973 117.221 29.216C117.946 29.8133 118.917 30.112 120.133 30.112C121.263 30.112 122.095 29.8773 122.629 29.408C123.162 28.9173 123.429 28.3413 123.429 27.68C123.429 27.04 123.269 26.5493 122.949 26.208C122.65 25.8667 122.202 25.6107 121.605 25.44C121.029 25.248 120.314 25.0667 119.461 24.896C118.565 24.704 117.69 24.448 116.837 24.128C115.983 23.7867 115.279 23.328 114.725 22.752C114.17 22.176 113.893 21.4187 113.893 20.48C113.893 19.5413 114.127 18.72 114.597 18.016C115.066 17.312 115.727 16.7573 116.581 16.352C117.455 15.9467 118.479 15.744 119.653 15.744C121.338 15.744 122.714 16.1707 123.781 17.024C124.869 17.856 125.498 19.0507 125.669 20.608H123.013C122.906 19.7973 122.554 19.168 121.957 18.72C121.381 18.2507 120.602 18.016 119.621 18.016C118.661 18.016 117.914 18.2187 117.381 18.624C116.869 19.0293 116.613 19.5627 116.613 20.224C116.613 20.6507 116.762 21.0133 117.061 21.312C117.359 21.6107 117.786 21.8667 118.341 22.08C118.917 22.2933 119.589 22.4853 120.357 22.656C121.423 22.8693 122.394 23.136 123.269 23.456C124.143 23.776 124.847 24.2453 125.381 24.864C125.914 25.4613 126.181 26.3253 126.181 27.456C126.202 28.3947 125.957 29.2373 125.445 29.984C124.954 30.7307 124.25 31.3173 123.333 31.744C122.437 32.1707 121.359 32.384 120.101 32.384Z" fill="#292727"/>
</svg>
