<!-- created by svgstack.com | Attribution is required. --><svg width="201" height="201" viewBox="0 0 201 201" fill="none" xmlns="http://www.w3.org/2000/svg"><g clip-path="url(#clip0_106_2079)"><path d="M199.683 91.155C199.957 94.1795 200.146 97.2308 200.146 100.329C200.146 97.2308 199.957 94.1818 199.683 91.155Z" fill="#56676E"/><path d="M51.4643 90.6272C51.4643 90.6272 23.6803 192.997 135.041 193.888C169.981 180.881 195.727 148.992 199.629 110.547C199.899 107.888 199.979 105.175 200.039 102.458C200.05 101.743 200.146 101.048 200.146 100.329C200.146 97.233 199.956 94.1795 199.683 91.155C170.262 206.975 40.1057 161.609 51.4643 90.6272Z" fill="#56676E"/><path d="M109.046 52.6291C109.046 52.6291 5.36179 23.6736 6.95644 136.729C12.2714 150.391 20.5195 162.721 31.119 172.847C31.5645 173.268 32.0255 173.667 32.4754 174.081C35.4736 176.845 38.6375 179.424 41.9498 181.803C42.4642 182.17 42.9475 182.576 43.4642 182.934C46.9678 185.33 50.6213 187.499 54.4019 189.429C55.4999 189.994 56.629 190.511 57.7426 191.039C60.9961 192.571 64.3306 193.924 67.7315 195.092C68.5667 195.377 69.364 195.734 70.2103 195.999C74.2874 197.245 78.4409 198.227 82.6446 198.939C83.9164 199.161 85.2014 199.348 86.4887 199.527C90.8498 200.157 95.2475 200.498 99.6535 200.549C99.8228 200.549 99.9854 200.576 100.155 200.576C103.478 200.576 106.758 200.397 109.994 200.079C-6.33978 172.335 37.8785 42.2505 109.046 52.6291Z" fill="#56676E"/><path d="M149.46 106.244C149.46 106.244 173.99 2.82724 63.5716 7.4464C26.5448 22.0722 0.333252 58.099 0.333252 100.319C0.367684 104.866 0.710715 109.405 1.35998 113.905C24.5983 -3.09704 156.988 34.7961 149.46 106.244Z" fill="#56676E"/><path d="M96.4421 150.747C96.4421 150.747 200.306 164.306 193.805 65.5558C179.669 27.5447 143.17 0.41333 100.239 0.41333C94.1603 0.436822 88.0959 1.01306 82.1213 2.13493C197.854 16.3421 167.774 151.759 96.4421 150.747Z" fill="#56676E"/><path d="M129.073 100.331C129.073 105.866 127.431 111.277 124.356 115.879C121.28 120.481 116.909 124.068 111.795 126.186C106.681 128.304 101.054 128.857 95.6254 127.777C90.1966 126.696 85.2104 124.03 81.2971 120.116C77.3837 116.201 74.7191 111.214 73.6403 105.785C72.5617 100.356 73.1171 94.7288 75.2365 89.6155C77.3559 84.5021 80.9441 80.1322 85.5474 77.0585C90.1505 73.9845 95.5619 72.3447 101.097 72.3464C108.518 72.3482 115.634 75.2974 120.88 80.5453C126.126 85.7934 129.073 92.9104 129.073 100.331Z" fill="#4E4F50"/></g><defs><clipPath id="clip0_106_2079"><rect width="200" height="200.445" fill="white" transform="translate(0.239502 0.275146)"/></clipPath></defs></svg> 